<?xml version="1.0" encoding="UTF-8" standalone="no" ?>
<!DOCTYPE svg PUBLIC "-//W3C//DTD SVG 1.1//EN" "http://www.w3.org/Graphics/SVG/1.1/DTD/svg11.dtd">
<svg xmlns="http://www.w3.org/2000/svg" xmlns:xlink="http://www.w3.org/1999/xlink" version="1.1" width="141" height="35" viewBox="0 0 141 35" xml:space="preserve">
<desc>Created with Fabric.js 5.2.4</desc>
<defs>
</defs>
<g transform="matrix(1 0 0 1 70.5 17.5)" id="4b220289-a444-422e-a598-fed4857bd850"  >
<rect style="stroke: none; stroke-width: 1; stroke-dasharray: none; stroke-linecap: butt; stroke-dashoffset: 0; stroke-linejoin: miter; stroke-miterlimit: 4; fill: rgb(255,255,255); fill-rule: nonzero; opacity: 1; visibility: hidden;" vector-effect="non-scaling-stroke"  x="-70.5" y="-17.5" rx="0" ry="0" width="141" height="35" />
</g>
<g transform="matrix(0 0 0 0 0 0)" id="417f7b5e-df2c-45cc-9394-6f752553463b"  >
</g>
<g transform="matrix(1 0 0 1 28.01 17.5)"  >
<path style="stroke: none; stroke-width: 1; stroke-dasharray: none; stroke-linecap: butt; stroke-dashoffset: 0; stroke-linejoin: miter; stroke-miterlimit: 4; fill: rgb(71,91,232); fill-rule: nonzero; opacity: 1;" vector-effect="non-scaling-stroke"  transform=" translate(-19.36, -17.27)" d="M 29.8398 16.1745 C 30.0314 16.5078 30.1322 16.8855 30.1322 17.27 C 30.1322 17.6545 30.0314 18.0322 29.8398 18.3655 L 25.531 25.7989 C 25.3385 26.1308 25.0622 26.4063 24.7298 26.5979 C 24.3975 26.7894 24.0206 26.8904 23.637 26.8906 L 15.0656 26.8906 C 14.6846 26.8877 14.3109 26.7855 13.9815 26.594 C 13.652 26.4026 13.3782 26.1285 13.187 25.7989 L 8.87818 18.3655 C 8.68663 18.0322 8.58582 17.6545 8.58582 17.27 C 8.58582 16.8855 8.68663 16.5078 8.87818 16.1745 L 11.2583 12.0701 L 16.5546 21.1275 C 16.6418 21.2825 16.7691 21.4113 16.9232 21.5002 C 17.0772 21.5891 17.2524 21.6349 17.4302 21.6328 L 21.2877 21.6328 C 21.4656 21.6349 21.6408 21.5891 21.7948 21.5002 C 21.9489 21.4113 22.0762 21.2825 22.1634 21.1275 L 24.0921 17.7599 C 24.1795 17.6086 24.2255 17.437 24.2255 17.2623 C 24.2255 17.0876 24.1795 16.916 24.0921 16.7647 L 15.3973 1.72045 C 15.0956 1.19867 14.662 0.765398 14.14 0.464105 C 13.618 0.162813 13.0259 0.00408893 12.4232 0.00385911 L 11.644 0.00385914 C 10.9544 0.00359764 10.2769 0.184924 9.6797 0.529597 C 9.08244 0.87427 8.58648 1.37014 8.24169 1.96733 L 0.526706 15.3104 C 0.181668 15.9072 -7.84862e-7 16.5845 -7.54727e-7 17.2739 C -7.24593e-7 17.9633 0.181668 18.6405 0.526706 19.2373 L 8.2417 32.5804 C 8.58697 33.1769 9.08314 33.672 9.68036 34.0159 C 10.2776 34.3599 10.9548 34.5407 11.644 34.54 L 27.074 34.54 C 27.7636 34.5403 28.441 34.3589 29.0383 34.0143 C 29.6355 33.6696 30.1315 33.1737 30.4763 32.5765 L 38.1913 19.2335 C 38.5363 18.6366 38.718 17.9594 38.718 17.27 C 38.718 16.5806 38.5363 15.9034 38.1913 15.3065 L 30.4763 1.96347 C 30.1315 1.36628 29.6355 0.870411 29.0383 0.525738 C 28.441 0.181065 27.7636 -0.00025847 27.074 0.00000309408 L 20.5162 0.00000338073 L 29.8398 16.1745 Z" stroke-linecap="round" />
</g>
<g transform="matrix(1 0 0 1 235.54 -20.98)" style="" id="435bbd11-2d15-40ae-8e04-53d61624136e"  >
		<text xml:space="preserve" font-family="Raleway" font-size="36" font-style="normal" font-weight="900" style="stroke: none; stroke-width: 1; stroke-dasharray: none; stroke-linecap: butt; stroke-dashoffset: 0; stroke-linejoin: miter; stroke-miterlimit: 4; fill: rgb(0,0,0); fill-rule: nonzero; opacity: 1; white-space: pre;" ><tspan x="-75.02" y="11.31" >Heading</tspan></text>
</g>
<g transform="matrix(1 0 0 1 94.5 17.5)" style="" id="92948eba-a26c-4868-aa50-3200faaeeaed"  >
		<text xml:space="preserve" font-family="Lato" font-size="20" font-style="normal" font-weight="900" style="stroke: none; stroke-width: 1; stroke-dasharray: none; stroke-linecap: butt; stroke-dashoffset: 0; stroke-linejoin: miter; stroke-miterlimit: 4; fill: rgb(0,0,0); fill-rule: nonzero; opacity: 1; white-space: pre;" ><tspan x="-42.6" y="6.28" >MyBoard</tspan></text>
</g>
</svg>